<?xml version="1.0" encoding="iso-8859-1"?>
<!-- Generator: Adobe Illustrator 18.0.0, SVG Export Plug-In . SVG Version: 6.00 Build 0)  -->
<!DOCTYPE svg PUBLIC "-//W3C//DTD SVG 1.1//EN" "http://www.w3.org/Graphics/SVG/1.1/DTD/svg11.dtd">
<svg version="1.1" xmlns="http://www.w3.org/2000/svg" xmlns:xlink="http://www.w3.org/1999/xlink" x="0px" y="0px"
	 viewBox="0 0 841.89 595.28" style="enable-background:new 0 0 841.89 595.28;" xml:space="preserve">
<g id="Layer_2" style="transform-origin: 50% 50%; transform: translate(50%, 0);">
	<path style="fill:#231F20;stroke:#231F20;stroke-miterlimit:10;" d="M215.932,134.491c0,0,231.176,189.458,231.176,189.458
		L257.65,92.773l-0.021-0.026c-8.009,5.646-15.582,12-22.652,19.07s-13.424,14.643-19.07,22.653"
		>
	<animate attributeType="XML"
				   attributeName="opacity"
				   begin="0s"
				   values="1;0.4;1"
				   dur="1s"
				   repeatCount="indefinite"
			 />
	</path>
	<path style="fill:#231F20;stroke:#231F20;stroke-miterlimit:10;" d="M307.945,102.064c0,0,113,195.722,113,195.722L362.452,79.487
		l-0.006-0.025c-9.403,2.532-18.749,5.701-27.987,9.527c-9.238,3.826-18.087,8.195-26.526,13.053">
		<animate attributeType="XML"
				   attributeName="opacity"
				   begin="0.0625s"
				   values="1;0.4;1"
				   dur="1s"
				   repeatCount="indefinite"
			 />
	</path>
	<path style="fill:#231F20;stroke:#231F20;stroke-miterlimit:10;" d="M202.646,239.293c0,0,218.299,58.493,218.299,58.493
		l-195.722-113l-0.022-0.013c-4.858,8.439-9.227,17.288-13.053,26.526s-6.995,18.584-9.527,27.987">
		<animate attributeType="XML"
				   attributeName="opacity"
				   begin="0.125s"
				   values="1;0.4;1"
				   dur="1s"
				   repeatCount="indefinite"
			 />
	</path>
	<path style="fill:#231F20;stroke:#231F20;stroke-miterlimit:10;" d="M160.512,327.285c0,0,297.433-29.499,297.433-29.499
		l-297.433-29.499l-0.033-0.004c-1.671,9.656-2.533,19.503-2.533,29.502c0,9.999,0.862,19.847,2.533,29.502">
		<animate attributeType="XML"
				   attributeName="opacity"
				   begin="0.1875s"
				   values="1;0.4;1"
				   dur="1s"
				   repeatCount="indefinite"
			 />
	</path>
	<path style="fill:#231F20;stroke:#231F20;stroke-miterlimit:10;" d="M225.223,410.786c0,0,195.722-113,195.722-113l-218.299,58.493
		l-0.025,0.006c2.532,9.403,5.701,18.749,9.527,27.987s8.195,18.087,13.053,26.526">
		<animate attributeType="XML"
				   attributeName="opacity"
				   begin="0.25s"
				   values="1;0.4;1"
				   dur="1s"
				   repeatCount="indefinite"
			 />
	</path>
	<path style="fill:#231F20;stroke:#231F20;stroke-miterlimit:10;" d="M257.65,502.799c0,0,189.458-231.176,189.458-231.176
		L215.932,461.081l-0.026,0.021c5.646,8.009,12,15.582,19.07,22.653s14.643,13.424,22.652,19.07">
		<animate attributeType="XML"
				   attributeName="opacity"
				   begin="0.3125s"
				   values="1;0.4;1"
				   dur="1s"
				   repeatCount="indefinite"
			 />
	</path>
	<path style="fill:#231F20;stroke:#231F20;stroke-miterlimit:10;" d="M362.452,516.085c0,0,58.493-218.299,58.493-218.299
		l-113,195.722l-0.013,0.022c8.439,4.858,17.288,9.227,26.526,13.053c9.238,3.827,18.584,6.995,27.987,9.527">
		<animate attributeType="XML"
				   attributeName="opacity"
				   begin="0.375s"
				   values="1;0.4;1"
				   dur="1s"
				   repeatCount="indefinite"
			 />
	</path>
	<path style="fill:#231F20;stroke:#231F20;stroke-miterlimit:10;" d="M450.444,558.219c0,0-29.499-297.433-29.499-297.433
		l-29.499,297.433l-0.004,0.033c9.656,1.671,19.503,2.533,29.502,2.533c9.999,0,19.847-0.862,29.502-2.533">
		<animate attributeType="XML"
				   attributeName="opacity"
				   begin="0.4375s"
				   values="1;0.4;1"
				   dur="1s"
				   repeatCount="indefinite"
			 />
	</path>
	<path style="fill:#231F20;stroke:#231F20;stroke-miterlimit:10;" d="M533.945,493.508c0,0-113-195.722-113-195.722l58.493,218.299
		l0.006,0.025c9.403-2.532,18.749-5.701,27.987-9.527c9.238-3.826,18.087-8.195,26.526-13.053">
		<animate attributeType="XML"
				   attributeName="opacity"
				   begin="0.5s"
				   values="1;0.4;1"
				   dur="1s"
				   repeatCount="indefinite"
			 />
	</path>
	<path style="fill:#231F20;stroke:#231F20;stroke-miterlimit:10;" d="M625.958,461.081c0,0-231.176-189.458-231.176-189.458
		L584.24,502.799l0.021,0.026c8.009-5.646,15.582-12,22.652-19.07s13.424-14.643,19.07-22.653">
		<animate attributeType="XML"
				   attributeName="opacity"
				   begin="0.5625s"
				   values="1;0.4;1"
				   dur="1s"
				   repeatCount="indefinite"
			 />
	</path>
	<path style="fill:#231F20;stroke:#231F20;stroke-miterlimit:10;" d="M639.244,356.279c0,0-218.299-58.493-218.299-58.493
		l195.722,113l0.022,0.013c4.858-8.439,9.227-17.288,13.053-26.526s6.995-18.584,9.527-27.987">
		<animate attributeType="XML"
				   attributeName="opacity"
				   begin="0.625s"
				   values="1;0.4;1"
				   dur="1s"
				   repeatCount="indefinite"
			 />
	</path>
	<path style="fill:#231F20;stroke:#231F20;stroke-miterlimit:10;" d="M681.378,268.287c0,0-297.433,29.499-297.433,29.499
		l297.433,29.499l0.033,0.004c1.671-9.656,2.533-19.503,2.533-29.502c0-9.999-0.862-19.847-2.533-29.502">
		<animate attributeType="XML"
				   attributeName="opacity"
				   begin="0.6875s"
				   values="1;0.4;1"
				   dur="1s"
				   repeatCount="indefinite"
			 />
	</path>
	<path style="fill:#231F20;stroke:#231F20;stroke-miterlimit:10;" d="M616.667,184.786c0,0-195.722,113-195.722,113l218.299-58.493
		l0.025-0.006c-2.532-9.403-5.701-18.749-9.527-27.987s-8.195-18.087-13.053-26.526">
		<animate attributeType="XML"
				   attributeName="opacity"
				   begin="0.75s"
				   values="1;0.4;1"
				   dur="1s"
				   repeatCount="indefinite"
			 />
	</path>
	<path style="fill:#231F20;stroke:#231F20;stroke-miterlimit:10;" d="M584.24,92.773c0,0-189.458,231.176-189.458,231.176
		l231.176-189.458l0.026-0.021c-5.646-8.009-12-15.582-19.07-22.653s-14.643-13.424-22.652-19.07">
		<animate attributeType="XML"
				   attributeName="opacity"
				   begin="0.8125s"
				   values="1;0.4;1"
				   dur="1s"
				   repeatCount="indefinite"
			 />
	</path>
	<path style="fill:#231F20;stroke:#231F20;stroke-miterlimit:10;" d="M479.438,79.487c0,0-58.493,218.299-58.493,218.299
		l113-195.722l0.013-0.022c-8.439-4.858-17.288-9.227-26.526-13.053s-18.584-6.995-27.987-9.527">
		<animate attributeType="XML"
				   attributeName="opacity"
				   begin="0.875s"
				   values="1;0.4;1"
				   dur="1s"
				   repeatCount="indefinite"
			 />
	</path>
	<path style="fill:#231F20;stroke:#231F20;stroke-miterlimit:10;" d="M391.446,18.52c0,0,29.499,316.266,29.499,316.266
		L450.444,18.52l0.004-0.036c-9.656-1.777-19.503-2.693-29.502-2.693c-9.999,0-19.847,0.917-29.502,2.693">
		<animate attributeType="XML"
				   attributeName="opacity"
				   begin="0.9375s"
				   values="1;0.4;1"
				   dur="1s"
				   repeatCount="indefinite"
			 />
	</path>
</g>
<g id="Layer_3" style="transform-origin: 50% 50%; transform: translate(50%, 0);">
	<circle style="fill:#FFFFFF;" cx="421.048" cy="297.683" r="136.5"/>
</g>
<g id="Layer_1" style="transform-origin: 50% 50%; transform: translate(50%, 0);">
	<path style="fill:#FFFFFF;stroke:#231F20;stroke-width:40;stroke-miterlimit:10;" d="M242.29,289.786
		c46.395-36.952,79.986-97,178.655-97s140.569,68.626,178.655,97c-42.933,38.272-79.986,97-178.655,97
		S283.838,315.521,242.29,289.786z"/>
	
		<ellipse style="fill:#FFFFFF;stroke:#231F20;stroke-width:37;stroke-miterlimit:10;" cx="420.945" cy="289.786" rx="88" ry="87.36"/>
	<g>
		<g>
			<path d="M453.881,240.986c0,0.043,0,0.086,0,0.128c-0.03,0.162-0.059,0.323-0.092,0.501c-0.364,0.024-0.729,0.048-1.086,0.072
				c-0.022,0.199-0.038,0.351-0.054,0.496c-0.398,0-0.753,0-1.108,0c0.006,0.386,0.004,0.379-0.395,0.502
				c-0.061,0.019-0.14,0.147-0.127,0.206c0.065,0.293-0.086,0.326-0.314,0.305c-0.08-0.007-0.162,0.011-0.265,0.02
				c0.068,0.275-0.131,0.509-0.027,0.785c0.061,0.164-0.082,0.251-0.246,0.216c-0.087-0.019-0.163-0.086-0.264-0.141
				c-0.027,0.218-0.053,0.426-0.078,0.631c-0.509,0.024-0.509,0.024-0.581,0.497c-0.525,0.076-0.546,0.076-0.544,0.542
				c0.002,0.364-0.147,0.536-0.482,0.524c0,1.151-0.009,2.279,0.003,3.407c0.008,0.761,0.081,1.524,0.054,2.283
				c-0.012,0.353,0.145,0.405,0.412,0.416c0,0.268-0.007,0.514,0.002,0.759c0.009,0.245,0.043,0.489,0.049,0.734
				c0.013,0.519,0.009,0.519,0.506,0.585c0.028,0.004,0.054,0.025,0.079,0.037c-0.085,0.418-0.04,0.459,0.382,0.443
				c0.23-0.009,0.462,0.021,0.713,0.034c0,0.55,0,1.073,0,1.582c-0.205-0.01-0.368-0.018-0.548-0.027c0,0.208,0.002,0.386,0,0.563
				c-0.008,0.491-0.009,0.491-0.515,0.467c-0.019-0.001-0.038,0.017-0.126,0.057c0,0.626,0,1.284,0,2.004
				c-0.153-0.047-0.295-0.09-0.371-0.113c-0.244,0.06-0.444,0.109-0.635,0.156c-0.015,0.148-0.028,0.284-0.043,0.435
				c-0.186,0.01-0.363,0.02-0.576,0.031c0,0.341,0,0.667,0,0.999c-0.191,0.023-0.347,0.041-0.559,0.066c0,1.345,0,2.69,0,4.032
				c-0.223,0.018-0.39,0.032-0.563,0.046c-0.017,0.167-0.032,0.322-0.047,0.47c-0.186,0.027-0.35,0.051-0.506,0.074
				c-0.031,0.204-0.056,0.371-0.086,0.563c-0.156-0.017-0.292-0.032-0.381-0.041c-0.025,0.238-0.023,0.456-0.076,0.659
				c-0.071,0.271-0.266,0.394-0.55,0.315c-0.094,0.489-0.094,0.489-0.614,0.521c-0.008,0.158-0.015,0.315-0.023,0.467
				c-0.565,0.094-0.563,0.094-0.559,0.678c0.001,0.121-0.014,0.242-0.023,0.379c-0.193,0-0.351,0-0.54,0
				c0.009,0.182,0.005,0.35,0.029,0.513c0.07,0.493-0.055,0.628-0.528,0.55c-0.013-0.002-0.031,0.024-0.022,0.016
				c0.03,0.14,0.114,0.34,0.073,0.37c-0.253,0.186-0.113,0.422-0.123,0.638c-0.007,0.154-0.023,0.307-0.034,0.454
				c-0.498,0.039-0.499,0.039-0.509,0.51c-0.001,0.064-0.005,0.13,0.009,0.192c0.064,0.274-0.093,0.351-0.32,0.366
				c-0.072,0.005-0.145,0.001-0.235,0.001c0,0.491,0,0.974,0,1.462c0.194,0.014,0.358,0.026,0.543,0.039c0,0.697,0,1.377,0,2.054
				c-0.211,0.017-0.378,0.03-0.577,0.046c0,0.515,0,1.004,0,1.494c-0.035-0.021-0.069-0.042-0.104-0.063
				c-0.154,0.137-0.423,0.261-0.44,0.413c-0.054,0.483-0.021,0.977-0.008,1.466c0.007,0.242-0.131,0.385-0.369,0.343
				c-0.054-0.01-0.105-0.037-0.222-0.08c0,0.404-0.013,0.761,0.003,1.118c0.021,0.477-0.119,0.715-0.596,0.899
				c0,0.686,0,1.387,0,2.088c-0.487-0.02-0.487-0.02-0.464,0.423c0.001,0.021-0.004,0.042-0.006,0.064
				c-0.029,0.41-0.065,0.819-0.085,1.23c-0.013,0.27-0.002,0.541-0.002,0.812c-0.192,0.033-0.335,0.057-0.517,0.088
				c0,0.486,0,0.963,0,1.466c-0.215,0.012-0.39,0.023-0.596,0.035c0,1.529,0,3.05,0,4.592c-0.188,0.015-0.344,0.028-0.556,0.045
				c0,0.835,0,1.67,0,2.513c-0.211,0.02-0.367,0.035-0.581,0.055c0,0.834,0,1.666,0,2.487c-0.194,0.032-0.329,0.054-0.5,0.083
				c-0.037,0.489-0.074,0.973-0.112,1.468c-0.168,0.011-0.321,0.02-0.489,0.031c0,0.343,0,0.665,0,1
				c-0.211,0.012-0.386,0.022-0.54,0.03c-0.026,0.186,0.005,0.4-0.088,0.504c-0.081,0.091-0.301,0.059-0.442,0.079
				c-0.033,0.298-0.066,0.604-0.101,0.924c-0.181,0.011-0.356,0.022-0.523,0.032c0,0.508,0,1.001,0,1.385
				c0.223,0.135,0.484,0.211,0.494,0.313c0.046,0.454,0.02,0.916,0.02,1.395c-0.183,0-0.339,0-0.545,0c0,0.339,0,0.658,0,0.965
				c-0.218,0.03-0.385,0.052-0.54,0.074c-0.02,0.158-0.039,0.301-0.056,0.437c-0.527,0.07-0.522,0.07-0.495,0.576
				c0.008,0.151-0.014,0.303-0.023,0.456c-0.203,0.014-0.369,0.026-0.553,0.039c0,0.349,0,0.677,0,1.04
				c-0.183,0.019-0.349,0.036-0.514,0.053c-0.03,0.472-0.06,0.949-0.091,1.443c-0.166,0.01-0.323,0.019-0.525,0.031
				c0,0.331,0,0.652,0,0.978c-0.107,0.016-0.172,0.042-0.231,0.031c-0.299-0.055-0.381,0.102-0.368,0.361
				c0.003,0.064,0.003,0.128,0.004,0.192c0.006,0.484,0.006,0.484-0.49,0.471c-0.019,0-0.038,0.012-0.078,0.026
				c0,0.322,0,0.651,0,0.972c-0.226,0.024-0.371,0.039-0.522,0.054c0.009,0.168,0.016,0.312,0.025,0.48
				c-0.22,0.011-0.407,0.02-0.591,0.029c-0.012,0.16-0.023,0.316-0.036,0.494c-0.195,0-0.369,0-0.543,0
				c-0.014,0.484-0.014,0.484-0.579,0.551c-0.011,0.155-0.022,0.31-0.032,0.455c-0.192,0.021-0.347,0.038-0.553,0.06
				c0,0.446-0.01,0.871,0.005,1.295c0.006,0.164-0.03,0.258-0.199,0.235c-0.329-0.044-0.333,0.14-0.319,0.388
				c0.02,0.367,0.005,0.736,0.005,1.112c-0.221,0.019-0.386,0.033-0.589,0.05c0,0.322,0,0.637,0,0.955
				c-0.205,0.021-0.374,0.061-0.539,0.051c-0.536-0.033-0.535-0.04-0.643,0.484c-0.348-0.038-0.675-0.018-0.546,0.497
				c-0.386,0.017-0.73,0.032-1.083,0.048c0,0.068-0.002,0.111,0,0.153c0.012,0.251-0.039,0.393-0.358,0.339
				c-0.243-0.041-0.504,0.019-0.773,0.034c-0.019,0.168-0.035,0.312-0.05,0.451c-0.283,0.057-0.593,0.042-0.569,0.466
				c0.006,0.099-0.135,0.195-0.009,0.323c0.03,0.031-0.009,0.171-0.058,0.223c-0.035,0.037-0.144,0.03-0.209,0.009
				c-0.072-0.023-0.13-0.085-0.277-0.187c0,0.631,0,1.184,0,1.737c-0.172,0.008-0.278,0.013-0.403,0.019
				c-0.054,0.168-0.108,0.334-0.166,0.514c-0.171,0-0.339,0-0.514,0c-0.012,0.172-0.023,0.327-0.035,0.497
				c-0.176,0.02-0.342,0.038-0.562,0.062c0,0.319,0,0.636,0,0.946c-0.556,0.068-0.557,0.068-0.559,0.592
				c-0.002,0.485,0,0.969,0,1.481c-0.196,0.009-0.382,0.018-0.6,0.028c0,0.508,0,1.001,0,1.516c-0.191,0-0.348,0-0.5,0
				c-0.026,0.509-0.052,1.005-0.078,1.519c-0.169,0.018-0.324,0.035-0.51,0.055c0,0.488,0,0.981,0,1.486
				c-0.203,0.015-0.369,0.027-0.587,0.043c0,0.504,0,0.999,0,1.498c-0.22,0.014-0.388,0.025-0.549,0.036
				c0,0.312,0.016,0.61-0.004,0.905c-0.038,0.555-0.046,0.554,0.509,0.591c0.017,0.001,0.033,0.024,0.049,0.037
				c0,2.727,0,5.454,0,8.2c-0.208,0-0.376,0-0.528,0c-0.037,0.182-0.019,0.402-0.116,0.485c-0.1,0.085-0.314,0.036-0.466,0.044
				c-0.02,0.187-0.037,0.338-0.055,0.501c-0.192,0-0.349,0-0.518,0c0,0.338,0,0.661,0,0.989c0.164,0,0.33,0,0.528,0
				c0,0.532,0,1.037,0,1.537c-0.564,0.068-0.564,0.068-0.656-0.46c-0.332,0-0.669,0-0.999,0c-0.133-0.564-0.133-0.562-0.698-0.529
				c-0.167,0.01-0.335,0.002-0.517,0.002c0-0.19,0-0.346,0-0.508c-0.338,0-0.653,0-1.001,0c-0.018,0.334-0.036,0.658-0.054,0.998
				c-0.055,0.008-0.106,0.018-0.157,0.022c-0.432,0.032-0.432,0.032-0.431-0.401c0-0.377,0-0.755,0-1.13c-0.202,0-0.369,0-0.56,0
				c-0.008-0.162-0.029-0.308-0.02-0.452c0.036-0.547,0.026-0.562-0.513-0.596c-0.017-0.001-0.032-0.025-0.062-0.05
				c0-0.146,0-0.304,0-0.492c0.18,0,0.353,0,0.575,0c0-0.39-0.014-0.751,0.005-1.111c0.013-0.248-0.037-0.393-0.321-0.365
				c-0.214,0.021-0.295-0.079-0.28-0.298c0.014-0.215,0.088-0.31,0.313-0.272c0.088,0.015,0.182-0.007,0.29-0.013
				c0-0.557-0.006-1.09,0.003-1.622c0.004-0.258-0.056-0.409-0.361-0.353c-0.157,0.029-0.25-0.033-0.242-0.235
				c0.019-0.434,0.006-0.87,0.006-1.322c-0.174-0.011-0.349-0.021-0.561-0.034c0-0.339,0.003-0.655-0.001-0.971
				c-0.005-0.509-0.007-0.509-0.514-0.556c-0.018-0.002-0.034-0.023-0.083-0.058c0-0.293,0-0.61,0-0.938
				c-0.176-0.014-0.321-0.026-0.505-0.04c0-0.334,0-0.659,0-0.984c-0.206-0.013-0.372-0.024-0.579-0.037c0-0.336,0-0.652,0-0.978
				c-0.207-0.017-0.373-0.031-0.553-0.046c-0.011-0.17-0.021-0.327-0.031-0.486c-0.05-0.005-0.092-0.014-0.134-0.013
				c-0.451,0.009-0.445,0.01-0.427-0.429c0.007-0.188-0.017-0.378-0.028-0.575c-0.199-0.016-0.364-0.028-0.536-0.042
				c-0.008-0.159-0.014-0.296-0.021-0.446c-0.168-0.026-0.33-0.051-0.483-0.075c-0.028-0.166-0.053-0.314-0.085-0.506
				c-0.326,0-0.694,0-1.074,0c-0.01-0.183-0.018-0.328-0.027-0.486c-0.193-0.009-0.369-0.017-0.557-0.026
				c-0.009-0.165-0.016-0.31-0.024-0.471c-0.19-0.016-0.367-0.03-0.539-0.044c-0.021-0.171-0.039-0.324-0.057-0.472
				c-0.196-0.014-0.362-0.027-0.53-0.039c-0.015-0.171-0.029-0.325-0.044-0.496c-0.349,0-0.686,0-1.029,0
				c-0.033-0.185-0.061-0.344-0.082-0.464c-0.186-0.021-0.359-0.04-0.519-0.058c-0.018-0.186-0.032-0.337-0.048-0.509
				c-0.555,0-1.081,0-1.574,0c-0.055-0.199-0.096-0.348-0.135-0.49c-0.178-0.013-0.334-0.025-0.508-0.037c0-0.172,0-0.315,0-0.496
				c-0.396,0-0.773,0-1.184,0c0.029-0.204,0.052-0.364,0.075-0.523c0.202-0.013,0.369-0.024,0.525-0.034c0-0.156,0-0.292,0-0.438
				c-0.195-0.014-0.388-0.028-0.582-0.043c0.011-0.181,0.019-0.327,0.029-0.499c-0.101,0-0.189-0.019-0.266,0.003
				c-0.288,0.084-0.326-0.094-0.33-0.305c-0.005-0.239-0.001-0.478-0.001-0.717c-0.165,0-0.318,0-0.475,0
				c-0.026-0.178-0.049-0.338-0.076-0.519c-0.144,0-0.311,0-0.508,0c-0.016-0.178-0.03-0.341-0.044-0.501
				c-0.182-0.01-0.357-0.019-0.565-0.03c0.146-0.546-0.239-0.489-0.555-0.512c0-0.396,0.008-0.767-0.002-1.139
				c-0.01-0.398,0.171-0.618,0.589-0.667c-0.02-0.22-0.039-0.441-0.056-0.625c-0.19-0.039-0.361-0.074-0.522-0.107
				c-0.018-0.363-0.034-0.688-0.05-1.021c-0.181,0-0.348,0-0.524,0c-0.011-0.171-0.021-0.338-0.032-0.506
				c-0.084-0.008-0.15-0.03-0.209-0.018c-0.275,0.057-0.396-0.027-0.361-0.327c0.025-0.216,0.005-0.437,0.005-0.652
				c-0.19-0.023-0.344-0.042-0.52-0.064c0-0.612,0-1.206,0-1.799c-0.311-0.025-0.576-0.236-0.578-0.471
				c-0.004-0.418-0.001-0.835-0.001-1.274c-0.197,0-0.355,0-0.562,0c0-0.703,0-1.388,0-2.092c-0.417,0-0.784,0-1.177,0
				c0.017-0.205,0.03-0.367,0.043-0.518c0.207-0.021,0.374-0.037,0.535-0.054c0.016-0.161,0.03-0.297,0.047-0.461
				c0.178-0.015,0.354-0.029,0.514-0.042c0-0.662,0-1.322,0-1.998c-0.482,0-0.919-0.01-1.355,0.01
				c-0.078,0.004-0.177,0.119-0.219,0.205c-0.041,0.086-0.021,0.201-0.03,0.339c-0.208-0.019-0.39-0.037-0.594-0.056
				c0-0.353,0-0.671,0-0.99c-0.403,0-0.781,0-1.159,0c0-0.178,0-0.357,0-0.584c0.388,0,0.753,0,1.136,0c0-0.511,0-0.972,0-1.441
				c-0.187-0.015-0.365-0.028-0.576-0.045c0-0.338,0-0.68,0-0.968c-0.215-0.056-0.42-0.06-0.545-0.162
				c-0.067-0.054-0.053-0.35,0.023-0.407c0.129-0.097,0.335-0.092,0.531-0.134c0.002-0.027,0.01-0.113,0.011-0.198
				c0-0.214,0.007-0.428-0.008-0.641c-0.035-0.485-0.04-0.485-0.511-0.556c-0.017-0.003-0.032-0.026-0.037-0.031
				c0-0.185,0-0.36,0-0.549c0.195,0,0.361,0,0.531,0c0.018-0.165,0.033-0.31,0.05-0.475c0.193-0.01,0.368-0.02,0.538-0.029
				c0-0.156,0-0.301,0-0.435c-0.202-0.022-0.389-0.042-0.577-0.062c0.012-0.18,0.022-0.328,0.034-0.514c0.344,0,0.678,0,0.984,0
				c0.025-0.146,0.05-0.272,0.068-0.398c0.008-0.054,0.024-0.12,0.002-0.162c-0.096-0.185-0.026-0.456,0.166-0.455
				c0.385,0.002,0.461-0.208,0.436-0.522c0.201-0.011,0.378-0.02,0.544-0.029c0-0.163,0-0.306,0-0.459
				c-0.2-0.011-0.378-0.02-0.562-0.03c0-0.344,0-0.669,0-1.006c0.084-0.008,0.136-0.02,0.188-0.017
				c0.321,0.016,0.419-0.149,0.402-0.448c-0.018-0.307-0.006-0.615-0.007-0.923c-0.002-0.597-0.002-0.597-0.556-0.688
				c-0.018-0.268-0.052-0.542-0.052-0.815c0-0.776-0.011-1.553,0.032-2.327c0.02-0.361-0.108-0.458-0.425-0.427
				c-0.016,0.002-0.035-0.018-0.12-0.064c0-1.496,0-3.028,0-4.591c0.19,0,0.352,0,0.494,0c0.025-0.344,0.048-0.657,0.072-0.979
				c0.388-0.024,0.755-0.047,1.145-0.071c0-0.859,0-1.684,0-2.524c0.205,0,0.361,0,0.515,0c0.076-0.545,0.076-0.545,0.592-0.53
				c0.151-0.355-0.239-0.964,0.523-1.014c0.016-0.165,0.032-0.331,0.05-0.515c0.433,0.073,0.571-0.17,0.565-0.548
				c0.188,0,0.345,0,0.522,0c0.018-0.326,0.035-0.636,0.053-0.972c0.18-0.009,0.345-0.017,0.519-0.026
				c0.015-0.153,0.032-0.29,0.041-0.427c0.038-0.543,0.037-0.543,0.574-0.61c0.008-0.153,0.017-0.309,0.025-0.46
				c0.187-0.031,0.352-0.059,0.562-0.094c0-0.484,0-0.959,0-1.445c0.199-0.017,0.352-0.031,0.524-0.045c0-0.516,0-1.01,0-1.497
				c0.56-0.056,0.562-0.056,0.569-0.598c0.004-0.314,0.001-0.627,0.001-0.945c0.203-0.016,0.369-0.029,0.54-0.043
				c0.017-0.173,0.031-0.319,0.049-0.497c0.183,0,0.351-0.002,0.519,0c0.541,0.006,0.541,0.007,0.658-0.509
				c0.148-0.013,0.301-0.026,0.486-0.042c0-0.328,0-0.634,0-0.957c0.208-0.015,0.383-0.028,0.562-0.041c0-0.34,0-0.662,0-0.99
				c0.095-0.014,0.16-0.039,0.22-0.029c0.315,0.049,0.384-0.108,0.359-0.384c-0.019-0.205-0.004-0.412-0.004-0.621
				c0.218-0.026,0.383-0.046,0.566-0.068c-0.047-0.268,0.134-0.489,0.037-0.757c-0.063-0.173,0.084-0.248,0.251-0.195
				c0.074,0.023,0.135,0.091,0.248,0.17c0.028-0.257,0.051-0.471,0.074-0.687c0.172-0.012,0.326-0.022,0.509-0.035
				c0-0.346,0-0.67,0-0.995c0.204-0.014,0.379-0.026,0.576-0.039c0-0.511,0-1.003,0-1.491c0.204-0.018,0.371-0.032,0.567-0.049
				c0-0.334,0-0.649,0-0.977c0.187-0.014,0.343-0.027,0.527-0.041c0.027-0.321,0.055-0.647,0.084-0.989
				c0.182-0.018,0.356-0.036,0.549-0.056c0-0.309,0-0.632,0-0.978c0.849,0.032,0.465-0.639,0.612-1.016
				c0.139-0.013,0.275-0.026,0.414-0.039c0.028-0.176,0.055-0.351,0.085-0.539c0.178,0,0.335,0,0.508,0
				c0.018-0.326,0.035-0.637,0.053-0.951c0.185-0.025,0.35-0.048,0.51-0.069c0.022-0.162,0.041-0.306,0.061-0.451
				c0.196-0.014,0.363-0.026,0.542-0.039c0.014-0.174,0.027-0.327,0.04-0.484c0.195-0.015,0.371-0.028,0.568-0.043
				c0-0.335,0-0.649,0-0.947c0.173-0.108,0.45,0.063,0.497-0.242c0.056-0.367,0.193-0.674,0.574-0.783
				c0.012-0.194,0.022-0.37,0.033-0.551c0.14-0.008,0.245-0.016,0.351-0.019c0.181-0.005,0.22-0.098,0.216-0.271
				c-0.012-0.593-0.005-1.185-0.005-1.746c0.358-0.058,0.692-0.112,1.041-0.169c0.036-0.121,0.078-0.26,0.119-0.396
				c0.488,0.067,0.585-0.028,0.562-0.506c-0.007-0.151,0.022-0.304,0.035-0.466c0.166-0.015,0.312-0.029,0.456-0.042
				c0.015-0.166,0.029-0.32,0.046-0.498c0.775,0,1.526,0,2.278,0c0-0.352,0-0.677,0-1.015c0.16-0.015,0.306-0.029,0.477-0.045
				c0.016-0.125,0.042-0.249,0.045-0.374c0.015-0.579,0.013-0.579,0.571-0.638c0.012-0.163,0.024-0.329,0.036-0.485
				c0.683-0.074,0.516-0.608,0.572-1.001c0.552-0.073,0.604-0.141,0.558-0.7c-0.003-0.032-0.014-0.063-0.014-0.095
				c-0.001-0.257-0.001-0.513-0.001-0.763c0.226-0.016,0.384-0.027,0.585-0.041c0-0.507,0-0.994,0-1.487
				c0.188-0.019,0.332-0.034,0.48-0.049c0.024-0.335,0.047-0.65,0.071-0.973c0.191-0.016,0.359-0.031,0.53-0.045
				c0.012-0.16,0.023-0.315,0.036-0.483c0.186-0.009,0.353-0.016,0.563-0.026c0-0.503,0-1.001,0-1.503
				c0.207-0.02,0.373-0.036,0.564-0.054c0-0.34,0-0.666,0-1.012c0.2,0,0.375,0,0.584,0c0-0.345,0-0.668,0-1.008
				c0.21,0,0.386,0,0.559,0c0.01-0.177,0.02-0.338,0.029-0.493c0.887-0.065,0.994-0.116,1.116-0.519
				c0.166-0.014,0.332-0.028,0.494-0.042c0.027-0.172,0.049-0.316,0.079-0.506c0.365,0,0.723,0,1.088,0
				c0.019-0.184,0.034-0.32,0.053-0.503c0.35,0,0.697,0,1.046,0c0.018-0.192,0.032-0.336,0.047-0.488
				c0.196-0.01,0.372-0.02,0.535-0.029c0.019-0.177,0.036-0.329,0.055-0.507c0.39,0,0.749,0,1.127,0
				c-0.008-0.175-0.015-0.318-0.024-0.511c0.167,0,0.313-0.004,0.458,0.001c0.588,0.019,0.588,0.02,0.685-0.536
				c0.112,0,0.228-0.001,0.345,0c0.801,0.01,1.602,0.029,2.402,0.029c0.539,0,0.539-0.011,0.672-0.518c0.353,0,0.713,0,1.086,0
				c0.013-0.161,0.025-0.316,0.041-0.508c0.951,0,1.879,0,2.82,0c0.008,0.177,0.014,0.323,0.022,0.489c0.368,0,0.724,0,1.111,0
				c0-0.375-0.004-0.742,0.001-1.109c0.004-0.26-0.137-0.357-0.374-0.364c-0.191-0.006-0.383-0.026-0.574-0.023
				c-0.183,0.003-0.253-0.068-0.218-0.249c0.04-0.208-0.073-0.259-0.255-0.246c-0.093,0.007-0.188-0.007-0.276-0.012
				c-0.121-0.493-0.121-0.493,0.509-0.565c0.089-0.519,0.089-0.519,0.596-0.489c0.01-0.165,0.019-0.33,0.029-0.497
				c0.196-0.01,0.359-0.019,0.519-0.027c0.023-0.513,0.036-0.527,0.455-0.526c0.046-0.162,0.044-0.384,0.147-0.456
				c0.126-0.089,0.341-0.053,0.519-0.071c0-0.153,0-0.298,0-0.455c0.297-0.022,0.58-0.044,0.862-0.065c0.192,0,0.385,0,0.577,0
				c0.665,0.013,1.329,0.025,1.994,0.038c0.01,0.165,0.02,0.329,0.031,0.503c0.184,0.014,0.361,0.028,0.543,0.042
				c0.017,0.176,0.031,0.33,0.046,0.482c0.569-0.033,0.569-0.033,0.546,0.515c-0.021,0.504-0.021,0.504,0.495,0.525
				c0.018,0.001,0.036,0.02,0.053,0.03c0.066,0.463,0.092,0.483,0.591,0.482c0.358-0.001,0.716,0,1.113,0c0,0.357,0,0.681,0,1.007
				c0.207,0.011,0.373,0.02,0.551,0.029c0.015,0.177,0.028,0.33,0.044,0.52c0.369,0,0.704,0,1.045,0
				c0.013,0.176,0.022,0.312,0.035,0.495c0.375,0,0.741,0,1.115,0c0.013,0.193,0.022,0.338,0.034,0.51c0.385,0,0.75,0,1.111,0
				c0.062,0.51,0.062,0.514,0.562,0.512c0.34-0.001,0.68-0.015,1.021-0.018c0.422-0.003,0.845-0.001,1.268-0.001
				c0.018,0.214,0.029,0.35,0.04,0.485c0.172,0.012,0.339,0.024,0.527,0.037c0,0.339,0,0.657,0,0.993
				c0.175,0.025,0.329,0.047,0.549,0.078c0,0.489,0,0.986,0,1.506c0.752,0,1.503,0,2.243,0
				C453.827,240.746,453.854,240.866,453.881,240.986z"/>
			<path style="fill:#FFFFFF;" d="M388.202,308.869c0.378,0,0.756,0,1.159,0c0,0.319,0,0.637,0,0.99
				c0.204,0.019,0.386,0.036,0.594,0.056c0.009-0.139-0.011-0.253,0.03-0.339c0.041-0.087,0.14-0.202,0.219-0.205
				c0.436-0.02,0.873-0.01,1.355-0.01c0,0.676,0,1.336,0,1.998c-0.16,0.013-0.336,0.028-0.514,0.042
				c-0.017,0.164-0.031,0.3-0.047,0.461c-0.162,0.016-0.329,0.033-0.535,0.054c-0.012,0.151-0.026,0.313-0.043,0.518
				c0.393,0,0.761,0,1.177,0c0,0.704,0,1.388,0,2.092c0.208,0,0.365,0,0.562,0c0,0.438-0.003,0.856,0.001,1.274
				c0.002,0.235,0.268,0.446,0.578,0.471c0,0.594,0,1.187,0,1.799c0.175,0.022,0.33,0.04,0.52,0.064c0,0.215,0.02,0.436-0.005,0.652
				c-0.035,0.3,0.086,0.384,0.361,0.327c0.059-0.012,0.126,0.01,0.209,0.018c0.011,0.169,0.021,0.335,0.032,0.506
				c0.176,0,0.343,0,0.524,0c0.016,0.334,0.032,0.659,0.05,1.021c0.161,0.033,0.332,0.068,0.522,0.107
				c0.016,0.184,0.036,0.404,0.056,0.625c-0.418,0.049-0.599,0.269-0.589,0.667c0.01,0.371,0.002,0.743,0.002,1.139
				c0.316,0.023,0.701-0.034,0.555,0.512c0.208,0.011,0.383,0.02,0.565,0.03c0.014,0.159,0.029,0.323,0.044,0.501
				c0.197,0,0.364,0,0.508,0c0.026,0.181,0.05,0.341,0.076,0.519c0.158,0,0.31,0,0.475,0c0,0.24-0.004,0.479,0.001,0.717
				c0.004,0.21,0.042,0.388,0.33,0.305c0.077-0.022,0.165-0.003,0.266-0.003c-0.01,0.172-0.019,0.318-0.029,0.499
				c0.194,0.014,0.387,0.028,0.582,0.043c0,0.146,0,0.281,0,0.438c-0.156,0.01-0.323,0.021-0.525,0.034
				c-0.023,0.159-0.046,0.319-0.075,0.523c0.411,0,0.787,0,1.184,0c0,0.181,0,0.325,0,0.496c0.174,0.013,0.33,0.024,0.508,0.037
				c0.039,0.142,0.08,0.291,0.135,0.49c0.494,0,1.019,0,1.574,0c0.016,0.172,0.031,0.323,0.048,0.509
				c0.16,0.018,0.333,0.037,0.519,0.058c0.021,0.121,0.05,0.28,0.082,0.464c0.344,0,0.681,0,1.029,0
				c0.015,0.171,0.029,0.325,0.044,0.496c0.168,0.012,0.334,0.025,0.53,0.039c0.018,0.148,0.036,0.3,0.057,0.472
				c0.173,0.014,0.35,0.029,0.539,0.044c0.008,0.161,0.016,0.306,0.024,0.471c0.188,0.009,0.365,0.017,0.557,0.026
				c0.009,0.158,0.017,0.303,0.027,0.486c0.381,0,0.748,0,1.074,0c0.032,0.192,0.057,0.34,0.085,0.506
				c0.153,0.024,0.315,0.049,0.483,0.075c0.007,0.15,0.014,0.287,0.021,0.446c0.172,0.013,0.337,0.026,0.536,0.042
				c0.011,0.198,0.035,0.387,0.028,0.575c-0.017,0.439-0.023,0.438,0.427,0.429c0.042-0.001,0.084,0.008,0.134,0.013
				c0.01,0.159,0.02,0.315,0.031,0.486c0.179,0.015,0.346,0.029,0.553,0.046c0,0.326,0,0.642,0,0.978
				c0.206,0.013,0.372,0.024,0.579,0.037c0,0.325,0,0.649,0,0.984c0.184,0.015,0.329,0.026,0.505,0.04c0,0.329,0,0.645,0,0.938
				c0.049,0.035,0.065,0.056,0.083,0.058c0.507,0.047,0.508,0.047,0.514,0.556c0.003,0.316,0.001,0.631,0.001,0.971
				c0.212,0.013,0.387,0.024,0.561,0.034c0,0.452,0.013,0.888-0.006,1.322c-0.009,0.202,0.085,0.263,0.242,0.235
				c0.305-0.056,0.365,0.095,0.361,0.353c-0.008,0.533-0.003,1.065-0.003,1.622c-0.107,0.006-0.202,0.028-0.29,0.013
				c-0.225-0.038-0.299,0.057-0.313,0.272c-0.014,0.219,0.067,0.319,0.28,0.298c0.285-0.028,0.335,0.117,0.321,0.365
				c-0.019,0.359-0.005,0.72-0.005,1.111c-0.222,0-0.395,0-0.575,0c0,0.188,0,0.346,0,0.492c0.03,0.025,0.045,0.049,0.062,0.05
				c0.539,0.034,0.549,0.05,0.513,0.596c-0.009,0.144,0.012,0.291,0.02,0.452c0.191,0,0.357,0,0.56,0c0,0.375,0,0.752,0,1.13
				c-0.001,0.433-0.001,0.433,0.431,0.401c0.051-0.004,0.102-0.014,0.157-0.022c0.018-0.34,0.036-0.664,0.054-0.998
				c0.348,0,0.663,0,1.001,0c0,0.162,0,0.318,0,0.508c0.182,0,0.35,0.008,0.517-0.002c0.565-0.033,0.565-0.035,0.698,0.529
				c0.331,0,0.667,0,0.999,0c0.092,0.528,0.092,0.528,0.656,0.46c0-0.5,0-1.005,0-1.537c-0.197,0-0.364,0-0.528,0
				c0-0.328,0-0.651,0-0.989c0.169,0,0.326,0,0.518,0c0.018-0.163,0.034-0.314,0.055-0.501c0.152-0.009,0.366,0.04,0.466-0.044
				c0.098-0.083,0.079-0.303,0.116-0.485c0.153,0,0.32,0,0.528,0c0-2.747,0-5.473,0-8.2c-0.016-0.013-0.032-0.036-0.049-0.037
				c-0.556-0.036-0.547-0.035-0.509-0.591c0.02-0.295,0.004-0.593,0.004-0.905c0.161-0.01,0.329-0.021,0.549-0.036
				c0-0.498,0-0.993,0-1.498c0.217-0.016,0.384-0.028,0.587-0.043c0-0.505,0-0.998,0-1.486c0.186-0.02,0.341-0.037,0.51-0.055
				c0.026-0.514,0.052-1.01,0.078-1.519c0.153,0,0.31,0,0.5,0c0-0.514,0-1.008,0-1.516c0.218-0.01,0.404-0.019,0.6-0.028
				c0-0.512-0.001-0.997,0-1.481c0.002-0.524,0.003-0.524,0.559-0.592c0-0.309,0-0.627,0-0.946c0.22-0.024,0.386-0.043,0.562-0.062
				c0.012-0.17,0.023-0.326,0.035-0.497c0.175,0,0.343,0,0.514,0c0.058-0.18,0.112-0.347,0.166-0.514
				c0.125-0.006,0.231-0.011,0.403-0.019c0-0.553,0-1.106,0-1.737c0.146,0.102,0.205,0.164,0.277,0.187
				c0.065,0.021,0.174,0.029,0.209-0.009c0.048-0.052,0.088-0.192,0.058-0.223c-0.126-0.128,0.015-0.224,0.009-0.323
				c-0.024-0.424,0.286-0.409,0.569-0.466c0.016-0.139,0.032-0.283,0.05-0.451c0.27-0.016,0.53-0.076,0.773-0.034
				c0.319,0.054,0.37-0.088,0.358-0.339c-0.002-0.042,0-0.085,0-0.153c0.353-0.016,0.696-0.031,1.083-0.048
				c-0.129-0.515,0.198-0.535,0.546-0.497c0.107-0.524,0.107-0.517,0.643-0.484c0.166,0.01,0.335-0.03,0.539-0.051
				c0-0.318,0-0.633,0-0.955c0.202-0.017,0.368-0.031,0.589-0.05c0-0.376,0.015-0.745-0.005-1.112
				c-0.013-0.248-0.009-0.432,0.319-0.388c0.17,0.023,0.205-0.071,0.199-0.235c-0.015-0.424-0.005-0.849-0.005-1.295
				c0.206-0.022,0.361-0.039,0.553-0.06c0.01-0.145,0.021-0.3,0.032-0.455c0.565-0.067,0.565-0.067,0.579-0.551
				c0.173,0,0.348,0,0.543,0c0.013-0.178,0.024-0.335,0.036-0.494c0.185-0.009,0.371-0.018,0.591-0.029
				c-0.009-0.168-0.016-0.312-0.025-0.48c0.151-0.016,0.296-0.031,0.522-0.054c0-0.321,0-0.65,0-0.972
				c0.04-0.014,0.059-0.027,0.078-0.026c0.496,0.013,0.497,0.013,0.49-0.471c-0.001-0.064-0.001-0.128-0.004-0.192
				c-0.012-0.258,0.069-0.416,0.368-0.361c0.059,0.011,0.124-0.015,0.231-0.031c0-0.326,0-0.648,0-0.978
				c0.202-0.012,0.359-0.021,0.525-0.031c0.031-0.494,0.061-0.972,0.091-1.443c0.165-0.017,0.331-0.034,0.514-0.053
				c0-0.363,0-0.691,0-1.04c0.184-0.013,0.35-0.024,0.553-0.039c0.008-0.153,0.031-0.305,0.023-0.456
				c-0.027-0.505-0.032-0.505,0.495-0.576c0.018-0.137,0.036-0.28,0.056-0.437c0.155-0.021,0.322-0.044,0.54-0.074
				c0-0.307,0-0.626,0-0.965c0.206,0,0.362,0,0.545,0c0-0.479,0.026-0.94-0.02-1.395c-0.01-0.102-0.271-0.178-0.494-0.313
				c0-0.384,0-0.877,0-1.385c0.167-0.01,0.342-0.021,0.523-0.032c0.035-0.32,0.068-0.626,0.101-0.924
				c0.141-0.02,0.361,0.012,0.442-0.079c0.093-0.104,0.062-0.318,0.088-0.504c0.153-0.009,0.329-0.019,0.54-0.03
				c0-0.334,0-0.656,0-1c0.168-0.011,0.321-0.02,0.489-0.031c0.038-0.494,0.074-0.979,0.112-1.468
				c0.171-0.028,0.306-0.051,0.5-0.083c0-0.82,0-1.652,0-2.487c0.213-0.02,0.37-0.035,0.581-0.055c0-0.843,0-1.678,0-2.513
				c0.211-0.017,0.367-0.03,0.556-0.045c0-1.542,0-3.063,0-4.592c0.206-0.012,0.382-0.022,0.596-0.035c0-0.503,0-0.98,0-1.466
				c0.181-0.031,0.324-0.055,0.517-0.088c0-0.271-0.01-0.542,0.002-0.812c0.02-0.41,0.056-0.82,0.085-1.23
				c0.002-0.021,0.007-0.043,0.006-0.064c-0.023-0.444-0.023-0.444,0.464-0.423c0-0.702,0-1.402,0-2.088
				c0.478-0.184,0.618-0.421,0.596-0.899c-0.016-0.356-0.003-0.714-0.003-1.118c0.117,0.043,0.168,0.071,0.222,0.08
				c0.238,0.042,0.376-0.101,0.369-0.343c-0.013-0.489-0.046-0.983,0.008-1.466c0.017-0.152,0.286-0.276,0.44-0.413
				c0.035,0.021,0.069,0.042,0.104,0.063c0-0.49,0-0.979,0-1.494c0.199-0.016,0.366-0.029,0.577-0.046c0-0.676,0-1.356,0-2.054
				c-0.185-0.013-0.349-0.025-0.543-0.039c0-0.487,0-0.971,0-1.462c0.09,0,0.163,0.004,0.235-0.001
				c0.227-0.016,0.383-0.093,0.32-0.366c-0.014-0.061-0.01-0.128-0.009-0.192c0.01-0.472,0.011-0.472,0.509-0.51
				c0.011-0.146,0.027-0.3,0.034-0.454c0.01-0.216-0.13-0.452,0.123-0.638c0.041-0.03-0.043-0.23-0.073-0.37
				c-0.009,0.007,0.009-0.019,0.022-0.016c0.472,0.078,0.598-0.057,0.528-0.55c-0.023-0.163-0.019-0.331-0.029-0.513
				c0.189,0,0.347,0,0.54,0c0.009-0.137,0.024-0.258,0.023-0.379c-0.004-0.584-0.006-0.584,0.559-0.678
				c0.007-0.152,0.015-0.309,0.023-0.467c0.52-0.031,0.52-0.031,0.614-0.521c0.284,0.079,0.479-0.044,0.55-0.315
				c0.053-0.203,0.051-0.421,0.076-0.659c0.089,0.01,0.225,0.024,0.381,0.041c0.029-0.192,0.055-0.359,0.086-0.563
				c0.156-0.023,0.319-0.047,0.506-0.074c0.015-0.148,0.03-0.303,0.047-0.47c0.174-0.014,0.34-0.028,0.563-0.046
				c0-1.342,0-2.686,0-4.032c0.212-0.025,0.367-0.043,0.559-0.066c0-0.332,0-0.658,0-0.999c0.213-0.012,0.39-0.021,0.576-0.031
				c0.015-0.152,0.028-0.288,0.043-0.435c0.191-0.047,0.391-0.096,0.635-0.156c0.076,0.023,0.218,0.066,0.371,0.113
				c0-0.72,0-1.378,0-2.004c0.088-0.041,0.107-0.058,0.126-0.057c0.506,0.023,0.507,0.024,0.515-0.467c0.003-0.177,0-0.354,0-0.563
				c0.18,0.009,0.343,0.017,0.548,0.027c0-0.509,0-1.032,0-1.582c-0.251-0.013-0.483-0.043-0.713-0.034
				c-0.422,0.017-0.467-0.025-0.382-0.443c-0.025-0.012-0.051-0.033-0.079-0.037c-0.497-0.066-0.493-0.066-0.506-0.585
				c-0.006-0.245-0.041-0.489-0.049-0.734c-0.009-0.245-0.002-0.491-0.002-0.759c-0.267-0.012-0.425-0.063-0.412-0.416
				c0.027-0.76-0.046-1.522-0.054-2.283c-0.012-1.128-0.003-2.257-0.003-3.407c0.336,0.012,0.484-0.16,0.482-0.524
				c-0.002-0.466,0.019-0.466,0.544-0.542c0.071-0.473,0.071-0.473,0.581-0.497c0.025-0.205,0.051-0.413,0.078-0.631
				c0.1,0.056,0.177,0.123,0.264,0.141c0.164,0.035,0.308-0.052,0.246-0.216c-0.103-0.277,0.096-0.511,0.027-0.785
				c0.103-0.009,0.186-0.027,0.265-0.02c0.228,0.021,0.38-0.012,0.314-0.305c-0.013-0.059,0.066-0.187,0.127-0.206
				c0.399-0.123,0.401-0.116,0.395-0.502c0.355,0,0.709,0,1.108,0c0.016-0.145,0.033-0.297,0.054-0.496
				c0.357-0.024,0.722-0.048,1.086-0.072c0.033-0.178,0.062-0.34,0.092-0.501c0,35.606,0,71.212,0,106.826
				c-21.91,0-43.82,0-65.729,0c0-13.013,0-26.029,0-39.045C388.169,308.888,388.186,308.879,388.202,308.869z"/>
			<path style="fill:#FFFFFF;" d="M388.202,308.869c-0.016,0.01-0.033,0.019-0.05,0.027c0-25.693,0-51.386,0-77.08
				c16.502,0,33.004,0,49.505,0c-0.283,0.021-0.565,0.043-0.862,0.065c0,0.157,0,0.302,0,0.455
				c-0.178,0.018-0.393-0.018-0.519,0.071c-0.103,0.072-0.101,0.294-0.147,0.456c-0.419-0.001-0.432,0.013-0.455,0.526
				c-0.161,0.008-0.323,0.017-0.519,0.027c-0.01,0.167-0.02,0.332-0.029,0.497c-0.507-0.03-0.507-0.03-0.596,0.489
				c-0.63,0.071-0.63,0.071-0.509,0.565c0.088,0.004,0.183,0.018,0.276,0.012c0.182-0.013,0.295,0.038,0.255,0.246
				c-0.035,0.181,0.035,0.252,0.218,0.249c0.191-0.003,0.383,0.017,0.574,0.023c0.237,0.008,0.378,0.105,0.374,0.364
				c-0.005,0.367-0.001,0.734-0.001,1.109c-0.387,0-0.743,0-1.111,0c-0.007-0.166-0.014-0.312-0.022-0.489c-0.94,0-1.869,0-2.82,0
				c-0.015,0.192-0.028,0.347-0.041,0.508c-0.373,0-0.733,0-1.086,0c-0.133,0.507-0.133,0.518-0.672,0.518
				c-0.801,0-1.602-0.019-2.402-0.029c-0.116-0.001-0.233,0-0.345,0c-0.097,0.557-0.097,0.556-0.685,0.536
				c-0.145-0.005-0.291-0.001-0.458-0.001c0.009,0.192,0.016,0.336,0.024,0.511c-0.378,0-0.737,0-1.127,0
				c-0.019,0.178-0.036,0.329-0.055,0.507c-0.163,0.009-0.339,0.018-0.535,0.029c-0.015,0.152-0.028,0.296-0.047,0.488
				c-0.349,0-0.696,0-1.046,0c-0.019,0.183-0.034,0.319-0.053,0.503c-0.365,0-0.723,0-1.088,0c-0.03,0.19-0.052,0.334-0.079,0.506
				c-0.162,0.014-0.329,0.028-0.494,0.042c-0.122,0.402-0.229,0.453-1.116,0.519c-0.009,0.155-0.018,0.316-0.029,0.493
				c-0.173,0-0.35,0-0.559,0c0,0.34,0,0.663,0,1.008c-0.209,0-0.384,0-0.584,0c0,0.346,0,0.672,0,1.012
				c-0.191,0.018-0.357,0.034-0.564,0.054c0,0.502,0,1,0,1.503c-0.209,0.01-0.377,0.018-0.563,0.026
				c-0.013,0.169-0.024,0.323-0.036,0.483c-0.171,0.015-0.339,0.029-0.53,0.045c-0.023,0.323-0.046,0.638-0.071,0.973
				c-0.148,0.015-0.291,0.03-0.48,0.049c0,0.494,0,0.98,0,1.487c-0.202,0.014-0.359,0.025-0.585,0.041
				c0,0.25-0.001,0.507,0.001,0.763c0,0.032,0.012,0.063,0.014,0.095c0.046,0.559-0.006,0.626-0.558,0.7
				c-0.056,0.393,0.111,0.928-0.572,1.001c-0.012,0.156-0.024,0.322-0.036,0.485c-0.558,0.06-0.556,0.06-0.571,0.638
				c-0.003,0.125-0.029,0.249-0.045,0.374c-0.17,0.016-0.317,0.03-0.477,0.045c0,0.338,0,0.663,0,1.015c-0.752,0-1.504,0-2.278,0
				c-0.016,0.178-0.03,0.332-0.046,0.498c-0.144,0.013-0.29,0.027-0.456,0.042c-0.013,0.162-0.042,0.315-0.035,0.466
				c0.024,0.479-0.073,0.574-0.562,0.506c-0.041,0.136-0.083,0.275-0.119,0.396c-0.349,0.057-0.682,0.111-1.041,0.169
				c0,0.561-0.008,1.154,0.005,1.746c0.004,0.173-0.035,0.266-0.216,0.271c-0.105,0.003-0.211,0.011-0.351,0.019
				c-0.011,0.182-0.021,0.357-0.033,0.551c-0.382,0.108-0.519,0.415-0.574,0.783c-0.046,0.305-0.324,0.134-0.497,0.242
				c0,0.298,0,0.612,0,0.947c-0.197,0.015-0.374,0.028-0.568,0.043c-0.013,0.157-0.026,0.311-0.04,0.484
				c-0.179,0.013-0.346,0.025-0.542,0.039c-0.02,0.146-0.039,0.289-0.061,0.451c-0.16,0.022-0.324,0.044-0.51,0.069
				c-0.017,0.314-0.035,0.625-0.053,0.951c-0.173,0-0.33,0-0.508,0c-0.029,0.188-0.057,0.363-0.085,0.539
				c-0.139,0.013-0.275,0.026-0.414,0.039c-0.147,0.377,0.237,1.048-0.612,1.016c0,0.345,0,0.669,0,0.978
				c-0.193,0.02-0.367,0.037-0.549,0.056c-0.029,0.342-0.057,0.667-0.084,0.989c-0.184,0.014-0.34,0.026-0.527,0.041
				c0,0.327,0,0.643,0,0.977c-0.197,0.017-0.363,0.031-0.567,0.049c0,0.488,0,0.98,0,1.491c-0.197,0.013-0.372,0.025-0.576,0.039
				c0,0.325,0,0.649,0,0.995c-0.182,0.012-0.337,0.023-0.509,0.035c-0.023,0.216-0.046,0.43-0.074,0.687
				c-0.113-0.08-0.173-0.147-0.248-0.17c-0.166-0.052-0.314,0.022-0.251,0.195c0.097,0.268-0.083,0.489-0.037,0.757
				c-0.183,0.022-0.348,0.042-0.566,0.068c0,0.209-0.015,0.416,0.004,0.621c0.026,0.276-0.044,0.434-0.359,0.384
				c-0.06-0.009-0.125,0.015-0.22,0.029c0,0.328,0,0.651,0,0.99c-0.18,0.013-0.354,0.026-0.562,0.041c0,0.323,0,0.629,0,0.957
				c-0.185,0.016-0.338,0.029-0.486,0.042c-0.117,0.515-0.117,0.515-0.658,0.509c-0.168-0.002-0.336,0-0.519,0
				c-0.017,0.178-0.032,0.324-0.049,0.497c-0.171,0.014-0.337,0.027-0.54,0.043c0,0.317,0.003,0.631-0.001,0.945
				c-0.007,0.542-0.009,0.542-0.569,0.598c0,0.487,0,0.981,0,1.497c-0.172,0.015-0.325,0.028-0.524,0.045c0,0.486,0,0.961,0,1.445
				c-0.21,0.035-0.375,0.063-0.562,0.094c-0.008,0.151-0.017,0.307-0.025,0.46c-0.536,0.067-0.536,0.067-0.574,0.61
				c-0.01,0.137-0.026,0.274-0.041,0.427c-0.173,0.009-0.339,0.017-0.519,0.026c-0.018,0.336-0.035,0.647-0.053,0.972
				c-0.177,0-0.334,0-0.522,0c0.006,0.377-0.132,0.62-0.565,0.548c-0.018,0.184-0.034,0.35-0.05,0.515
				c-0.762,0.05-0.372,0.659-0.523,1.014c-0.516-0.016-0.516-0.016-0.592,0.53c-0.154,0-0.31,0-0.515,0c0,0.84,0,1.665,0,2.524
				c-0.39,0.024-0.757,0.047-1.145,0.071c-0.024,0.322-0.047,0.635-0.072,0.979c-0.143,0-0.304,0-0.494,0c0,1.562,0,3.094,0,4.591
				c0.085,0.046,0.104,0.066,0.12,0.064c0.317-0.031,0.445,0.066,0.425,0.427c-0.043,0.774-0.032,1.551-0.032,2.327
				c0,0.273,0.034,0.547,0.052,0.815c0.554,0.092,0.554,0.092,0.556,0.688c0.001,0.308-0.011,0.616,0.007,0.923
				c0.018,0.299-0.081,0.464-0.402,0.448c-0.051-0.003-0.103,0.009-0.188,0.017c0,0.337,0,0.662,0,1.006
				c0.184,0.01,0.363,0.019,0.562,0.03c0,0.153,0,0.297,0,0.459c-0.166,0.009-0.343,0.018-0.544,0.029
				c0.026,0.314-0.05,0.524-0.436,0.522c-0.191-0.001-0.262,0.27-0.166,0.455c0.022,0.042,0.006,0.108-0.002,0.162
				c-0.018,0.126-0.043,0.252-0.068,0.398c-0.306,0-0.64,0-0.984,0c-0.012,0.186-0.022,0.334-0.034,0.514
				c0.188,0.02,0.375,0.04,0.577,0.062c0,0.133,0,0.279,0,0.435c-0.17,0.009-0.345,0.019-0.538,0.029
				c-0.017,0.165-0.033,0.31-0.05,0.475c-0.17,0-0.337,0-0.531,0c0,0.189,0,0.363,0,0.549c0.005,0.005,0.02,0.028,0.037,0.031
				c0.471,0.071,0.476,0.07,0.511,0.556c0.016,0.213,0.008,0.427,0.008,0.641c0,0.085-0.009,0.17-0.011,0.198
				c-0.197,0.043-0.403,0.037-0.531,0.134c-0.075,0.057-0.09,0.353-0.023,0.407c0.125,0.102,0.33,0.106,0.545,0.162
				c0,0.288,0,0.63,0,0.968c0.211,0.016,0.388,0.03,0.576,0.045c0,0.469,0,0.93,0,1.441c-0.383,0-0.748,0-1.136,0
				C388.202,308.512,388.202,308.69,388.202,308.869z"/>
			<path style="fill:#FFFFFF;" d="M453.881,240.986c-0.027-0.12-0.053-0.24-0.089-0.399c-0.74,0-1.491,0-2.243,0
				c0-0.52,0-1.018,0-1.506c-0.22-0.031-0.374-0.053-0.549-0.078c0-0.337,0-0.654,0-0.993c-0.188-0.013-0.355-0.025-0.527-0.037
				c-0.011-0.136-0.022-0.272-0.04-0.485c-0.424,0-0.846-0.003-1.268,0.001c-0.34,0.003-0.681,0.017-1.021,0.018
				c-0.501,0.001-0.501-0.002-0.562-0.512c-0.361,0-0.727,0-1.111,0c-0.011-0.172-0.021-0.317-0.034-0.51c-0.374,0-0.74,0-1.115,0
				c-0.013-0.183-0.023-0.318-0.035-0.495c-0.341,0-0.676,0-1.045,0c-0.016-0.191-0.029-0.343-0.044-0.52
				c-0.178-0.009-0.345-0.018-0.551-0.029c0-0.326,0-0.65,0-1.007c-0.397,0-0.755-0.001-1.113,0
				c-0.499,0.002-0.525-0.019-0.591-0.482c-0.018-0.011-0.035-0.029-0.053-0.03c-0.516-0.022-0.516-0.021-0.495-0.525
				c0.022-0.548,0.022-0.548-0.546-0.515c-0.014-0.152-0.029-0.306-0.046-0.482c-0.182-0.014-0.359-0.027-0.543-0.042
				c-0.011-0.173-0.021-0.338-0.031-0.503c-0.002-0.013-0.004-0.025-0.006-0.038c4.553,0,9.106,0,13.659,0
				C453.881,234.873,453.881,237.929,453.881,240.986z"/>
			<path style="fill:#FFFFFF;" d="M440.222,231.816c0.002,0.013,0.004,0.025,0.006,0.038c-0.665-0.013-1.329-0.025-1.994-0.038
				C438.897,231.816,439.559,231.816,440.222,231.816z"/>
		</g>
	</g>
</g>
</svg>
